<?xml version="1.0" encoding="UTF-8"?><svg id="Layer_1" xmlns="http://www.w3.org/2000/svg" viewBox="0 0 800 800"><path d="M651.48,469.68c-8.75-22.42-20.45-41.08-35.11-56.04-14.66-14.94-31.13-25.82-49.39-32.64-2.41-.9-4.84-1.58-7.26-2.36,7.85-3.83,15.17-8.56,21.93-14.21,18.25-15.25,32.03-35.08,41.28-59.44,9.26-24.37,13.89-50.51,13.89-78.45,0-52.62-12.22-93.7-36.65-123.28-24.44-29.55-58.26-44.34-101.48-44.34h-204.5c-6.69,0-12.23,2.92-16.59,8.77-4.38,5.84-6.56,12.67-6.56,20.46V711.84c0,7.8,2.18,14.62,6.56,20.47,4.36,5.85,9.9,8.77,16.59,8.77h207.59c21.09,0,41.29-3.41,60.58-10.23,19.3-6.82,36.65-17.87,52.09-33.14,15.44-15.25,27.65-35.08,36.66-59.44,8.99-24.36,13.5-53.43,13.5-87.22,0-31.83-4.38-58.96-13.12-81.37ZM320.41,117.39h171.32c30.35,0,53.89,10.24,70.61,30.69,16.71,20.47,25.08,48.24,25.08,83.33,0,42.23-9.14,74.05-27.39,95.5-18.27,21.44-40.78,32.49-67.53,33.13h-172.09V117.39Zm261.61,534.52c-22.12,21.12-49.9,31.67-83.34,31.67h-178.27V419.49h177.49c20.57,0,39.87,4.06,57.88,12.17,18,8.14,32.41,21.93,43.22,41.43,10.8,19.48,16.21,45.48,16.21,77.96,0,46.14-11.07,79.76-33.18,100.86Z" style="fill:#13365b;"/><g><path d="M186.08,721.59c0,5.21-1.95,9.74-5.85,13.64-3.9,3.89-8.45,5.85-13.64,5.85-5.85,0-10.56-1.95-14.13-5.85-3.58-3.9-5.36-8.44-5.36-13.64V258.7c0-5.2,1.95-9.76,5.85-13.64,3.9-3.9,8.44-5.85,13.64-5.85,5.85,0,10.55,1.95,14.13,5.85,3.56,3.89,5.36,8.45,5.36,13.64v462.89Z" style="fill:#13365b;"/><path d="M188.64,143.72c5.64-5.64,9.14-13.44,9.14-22.05,0-10.52-7.98-23.5-14.33-33.84-1.43-2.32-2.77-4.51-4.01-6.66h0s0,0,0,0l-12.84-22.24-12.8,22.16-.05,.09c-1.24,2.14-2.58,4.33-4.01,6.65-6.36,10.34-14.34,23.31-14.34,33.84,0,8.61,3.49,16.41,9.14,22.05,5.64,5.64,13.44,9.14,22.05,9.14s16.41-3.49,22.05-9.14h0Z" style="fill:#13365b; fill-rule:evenodd;"/></g></svg>