<?xml version="1.0" encoding="UTF-8"?><svg id="Layer_1" xmlns="http://www.w3.org/2000/svg" viewBox="0 0 3821.44 724.02"><path d="M155.12,695.06c0,5.16-1.93,9.65-5.79,13.51-3.86,3.86-8.37,5.79-13.51,5.79-5.79,0-10.47-1.93-13.99-5.79-3.55-3.87-5.31-8.36-5.31-13.51V236.52c0-5.15,1.93-9.66,5.79-13.51,3.86-3.87,8.36-5.8,13.51-5.8,5.79,0,10.45,1.93,14,5.8,3.53,3.85,5.31,8.37,5.31,13.51v458.54Z" style="fill:#13365b;"/><path d="M157.66,122.62c5.59-5.59,9.05-13.32,9.05-21.85,0-10.43-7.9-23.27-14.2-33.52-1.41-2.3-2.75-4.47-3.98-6.6h0s0,0,0,0l-12.72-22.04-12.68,21.95-.05,.09c-1.23,2.12-2.56,4.29-3.97,6.59-6.3,10.24-14.2,23.09-14.2,33.52,0,8.53,3.46,16.26,9.05,21.85,5.59,5.59,13.32,9.05,21.85,9.05s16.26-3.46,21.85-9.05h0Z" style="fill:#13365b; fill-rule:evenodd;"/><path d="M534.5,217.21c40.54,0,73.52,8.06,98.95,24.13,25.42,16.1,44.07,37.99,55.99,65.65,11.9,27.67,17.86,58.57,17.86,92.67v295.4c0,5.16-1.93,9.65-5.79,13.51-3.86,3.86-8.37,5.79-13.51,5.79-5.79,0-10.47-1.93-14-5.79-3.55-3.87-5.31-8.36-5.31-13.51V403.52c0-27.66-4.68-52.76-14-75.29-9.34-22.52-24.13-40.54-44.41-54.06s-46.82-20.28-79.64-20.28c-28.33,0-55.99,6.77-83.02,20.28-27.03,13.51-49.4,31.54-67.09,54.06-17.71,22.53-26.55,47.63-26.55,75.29v291.54c0,5.16-1.93,9.65-5.79,13.51-3.86,3.86-8.37,5.79-13.51,5.79-5.79,0-10.47-1.93-13.99-5.79-3.55-3.87-5.31-8.36-5.31-13.51V251.96c0-5.14,1.93-9.66,5.79-13.51,3.86-3.86,8.36-5.79,13.51-5.79,5.79,0,10.45,1.93,14,5.79,3.53,3.86,5.31,8.37,5.31,13.51v94.6l-24.13,46.34c0-23.16,6.11-45.38,18.34-66.61,12.22-21.24,28.31-40.06,48.27-56.47,19.94-16.41,41.99-29.28,66.13-38.62,24.13-9.32,48.1-14,71.92-14Z" style="fill:#13365b;"/><path d="M891.67,714.36c-5.79,0-10.47-1.93-14-5.79-3.55-3.87-5.31-8.36-5.31-13.51V19.31c0-5.15,1.76-9.66,5.31-13.51,3.53-3.87,8.21-5.8,14-5.8s10.45,1.93,14,5.8c3.53,3.86,5.31,8.37,5.31,13.51V695.06c0,5.16-1.78,9.65-5.31,13.51-3.55,3.86-8.21,5.79-14,5.79Zm334.97-487.51c5.15,0,9.66,1.93,13.51,5.8,3.87,3.87,5.8,8.68,5.8,14.48s-2.27,10.62-6.76,14.48l-334.98,278.98-1.93-46.34,311.8-261.61c3.87-3.87,8.04-5.8,12.55-5.8Zm5.8,487.51c-5.17,0-9.99-2.25-14.48-6.76l-233.62-249.06,28.96-25.1,232.65,247.13c3.86,3.86,5.79,8.69,5.79,14.48,0,6.44-2.58,11.27-7.72,14.48-5.16,3.22-9.02,4.82-11.58,4.82Z" style="fill:#13365b;"/><path d="M1711.62,445.51c-8.67-22.21-20.26-40.7-34.78-55.51-14.52-14.8-30.84-25.58-48.93-32.34-2.39-.89-4.8-1.57-7.19-2.34,7.78-3.79,15.02-8.48,21.72-14.08,18.08-15.11,31.72-34.75,40.9-58.88,9.17-24.14,13.76-50.04,13.76-77.72,0-52.13-12.11-92.82-36.31-122.12-24.21-29.27-57.72-43.92-100.53-43.92h-202.58c-6.63,0-12.11,2.89-16.44,8.69-4.33,5.78-6.5,12.55-6.5,20.26V685.4c0,7.72,2.16,14.48,6.5,20.27,4.32,5.79,9.81,8.69,16.44,8.69h205.64c20.9,0,40.9-3.37,60.01-10.13,19.11-6.76,36.31-17.7,51.6-32.83,15.29-15.11,27.39-34.75,36.32-58.88,8.91-24.13,13.37-52.93,13.37-86.4,0-31.53-4.33-58.4-13-80.61ZM1383.67,96.54h169.71c30.07,0,53.38,10.14,69.95,30.4,16.56,20.28,24.84,47.79,24.84,82.55,0,41.84-9.05,73.36-27.13,94.6-18.1,21.24-40.4,32.19-66.89,32.82h-170.47V96.54Zm259.15,529.49c-21.91,20.92-49.43,31.37-82.56,31.37h-176.59V395.8h175.82c20.38,0,39.49,4.02,57.33,12.06,17.84,8.06,32.11,21.72,42.81,41.04,10.7,19.3,16.05,45.05,16.05,77.22,0,45.7-10.97,79.01-32.87,99.91Z" style="fill:#13365b;"/><path d="M2275.57,467.23c0,48.92-10.62,92.84-31.85,131.77-21.24,38.94-50.2,69.51-86.88,91.71-36.69,22.2-78.52,33.3-125.49,33.3s-87.05-11.11-124.05-33.3c-37.01-22.21-66.29-52.77-87.85-91.71-21.57-38.93-32.34-82.85-32.34-131.77s10.77-93.64,32.34-132.26c21.56-38.61,50.84-69.17,87.85-91.71,37-22.51,78.34-33.78,124.05-33.78s88.81,11.27,125.49,33.78c36.68,22.54,65.64,53.09,86.88,91.71,21.24,38.62,31.85,82.71,31.85,132.26Zm-57.92,0c0-39.25-8.06-74.17-24.14-104.74-16.09-30.56-38.13-54.55-66.13-71.92-28-17.37-60.02-26.06-96.05-26.06s-66.3,8.69-94.6,26.06c-28.33,17.37-50.69,41.36-67.09,71.92-16.41,30.57-24.62,65.48-24.62,104.74s8.21,74.02,24.62,104.25c16.41,30.26,38.76,54.23,67.09,71.92,28.31,17.71,59.85,26.55,94.6,26.55s68.05-8.84,96.05-26.55c28-17.7,50.04-41.66,66.13-71.92,16.08-30.24,24.14-64.99,24.14-104.25Z" style="fill:#13365b;"/><path d="M2776.58,221.07c8.36,0,15.28,2.89,20.76,8.68,5.46,5.8,8.21,12.88,8.21,21.24v434.4c0,7.72-2.9,14.48-8.69,20.27-5.79,5.79-12.55,8.69-20.27,8.69-9.02,0-16.09-2.9-21.24-8.69-5.16-5.79-7.72-12.55-7.72-20.27v-114.88l16.41-6.76c0,17.38-4.99,35.57-14.96,54.54-9.98,18.99-23.65,36.37-41.02,52.13-17.38,15.77-37.82,28.64-61.3,38.61-23.5,9.97-48.75,14.96-75.78,14.96-43.77,0-82.87-11.26-117.29-33.79-34.43-22.52-61.46-53.41-81.08-92.68-19.64-39.25-29.45-83.33-29.45-132.25s9.97-94.44,29.92-132.73c19.95-38.28,46.98-68.38,81.09-90.26,34.1-21.86,72.41-32.81,114.88-32.81,27.66,0,53.58,4.82,77.72,14.47,24.13,9.66,45.2,22.86,63.23,39.58,18.01,16.74,32.17,35.89,42.48,57.44,10.28,21.56,15.45,43.92,15.45,67.08l-20.27-14.47v-122.6c0-8.36,2.56-15.44,7.72-21.24,5.15-5.79,12.22-8.68,21.24-8.68Zm-200.79,448.89c34.1,0,64.35-8.84,90.75-26.55,26.38-17.7,47.14-42.15,62.26-73.37,15.12-31.21,22.69-66.13,22.69-104.75s-7.57-71.27-22.69-101.84c-15.12-30.56-35.88-54.69-62.26-72.41-26.4-17.69-56.64-26.55-90.75-26.55s-63.56,8.54-90.26,25.58c-26.71,17.06-47.64,40.71-62.75,70.95-15.13,30.26-22.69,65.02-22.69,104.26s7.56,73.53,22.69,104.75c15.12,31.22,35.87,55.67,62.27,73.37,26.38,17.71,56.62,26.55,90.74,26.55Z" style="fill:#13365b;"/><path d="M2959.01,714.36c-9.02,0-16.26-2.9-21.71-8.69-5.48-5.79-8.21-12.55-8.21-20.27V252.93c0-7.72,2.89-14.48,8.68-20.27,5.8-5.8,12.87-8.69,21.24-8.69s15.28,2.89,20.76,8.69c5.46,5.79,8.21,12.55,8.21,20.27v144.8l-14.48,2.9c1.93-22.52,7.56-44.89,16.9-67.09,9.32-22.21,22.03-42.63,38.13-61.3,16.08-18.66,35.24-33.79,57.43-45.38,22.21-11.58,47.14-17.37,74.82-17.37,11.58,0,22.84,2.41,33.79,7.23,10.94,4.82,16.41,12.71,16.41,23.65,0,9.66-2.58,17.06-7.72,22.21-5.16,5.15-11.27,7.72-18.34,7.72-5.8,0-12.07-1.6-18.83-4.82-6.76-3.21-15.61-4.82-26.55-4.82-18.02,0-36.05,5.31-54.06,15.92-18.02,10.62-34.43,24.95-49.23,42.96-14.81,18.02-26.55,38.13-35.24,60.33-8.69,22.21-13.03,44.57-13.03,67.09v238.44c0,7.72-2.9,14.48-8.69,20.27-5.79,5.79-12.55,8.69-20.27,8.69Z" style="fill:#13365b;"/><path d="M3679.16,0c8.36,0,15.28,2.9,20.76,8.7,5.46,5.78,8.21,12.55,8.21,20.26V685.4c0,7.72-2.9,14.48-8.69,20.27-5.79,5.79-12.55,8.69-20.27,8.69-9.02,0-16.09-2.9-21.24-8.69-5.16-5.79-7.72-12.55-7.72-20.27v-114.88l16.41-13.51c0,18.67-4.82,37.81-14.48,57.43-9.65,19.64-23.33,37.65-41.03,54.06-17.71,16.41-38.3,29.77-61.78,40.06-23.5,10.28-48.75,15.45-75.78,15.45-43.13,0-81.91-11.26-116.33-33.79-34.44-22.52-61.63-53.09-81.57-91.71-19.96-38.61-29.92-82.68-29.92-132.25s9.97-92.82,29.92-131.77c19.95-38.93,46.98-69.51,81.09-91.71,34.1-22.21,72.41-33.3,114.88-33.3,27.03,0,52.44,4.82,76.27,14.47,23.8,9.66,44.89,22.86,63.23,39.58,18.35,16.74,32.83,35.89,43.44,57.44,10.62,21.56,15.93,43.92,15.93,67.08l-20.27-14.47V28.96c0-7.72,2.56-14.48,7.72-20.26,5.15-5.8,12.22-8.7,21.24-8.7Zm-200.79,669.96c34.75,0,65.17-8.84,91.23-26.55,26.06-17.7,46.65-41.83,61.78-72.41,15.12-30.56,22.69-65.48,22.69-104.74s-7.57-73.2-22.69-103.77c-15.12-30.56-35.88-54.55-62.26-71.92-26.4-17.37-56.64-26.06-90.75-26.06s-63.56,8.69-90.26,26.06c-26.71,17.37-47.64,41.36-62.75,71.92-15.13,30.57-22.69,65.16-22.69,103.77s7.56,73.37,22.69,104.25c15.12,30.9,36.04,55.19,62.75,72.89,26.7,17.71,56.79,26.55,90.26,26.55Z" style="fill:#13365b;"/></svg>